<svg xmlns="http://www.w3.org/2000/svg" xmlns:xlink="http://www.w3.org/1999/xlink" version="1.1" x="0px" y="0px" viewBox="0 0 100 125" enable-background="new 0 0 100 100" xml:space="preserve"><path d="M50.002,74.969c-0.184,0-0.367-0.034-0.541-0.101c-12.026-4.647-25.017-15.22-26.929-28.363  c-0.891-6.126,0.559-11.743,4.082-15.816c3.111-3.596,7.562-5.658,12.209-5.658c4.177,0,8.091,1.656,11.179,4.698  c3.088-3.042,7.001-4.698,11.177-4.698c4.647,0,9.097,2.063,12.208,5.659c3.522,4.073,4.973,9.689,4.081,15.815  c-1.912,13.143-14.9,23.715-26.925,28.363C50.369,74.935,50.186,74.969,50.002,74.969z M38.823,28.031  c-3.776,0-7.399,1.685-9.94,4.621c-2.944,3.404-4.146,8.17-3.382,13.421c1.71,11.753,13.443,21.351,24.501,25.784  c11.056-4.433,22.787-14.031,24.497-25.784c0.764-5.251-0.437-10.017-3.381-13.421c-2.541-2.937-6.163-4.622-9.939-4.622  c-3.813,0-7.376,1.73-10.031,4.872c-0.57,0.675-1.721,0.675-2.291,0C46.201,29.761,42.638,28.031,38.823,28.031z"/><text x="0" y="115" fill="#000000" font-size="5px" font-weight="bold" font-family="'Helvetica Neue', Helvetica, Arial-Unicode, Arial, Sans-serif">Created by Kidiladon</text><text x="0" y="120" fill="#000000" font-size="5px" font-weight="bold" font-family="'Helvetica Neue', Helvetica, Arial-Unicode, Arial, Sans-serif">from the Noun Project</text></svg>