<svg xmlns="http://www.w3.org/2000/svg" xmlns:xlink="http://www.w3.org/1999/xlink" version="1.1" x="0px" y="0px" viewBox="0 0 100 125" style="enable-background:new 0 0 100 100;" xml:space="preserve"><g><path d="M78.6,48.8c1.4-1.3,1.9-3.3,1.3-5.1c-0.6-1.8-2.1-3.1-4-3.4l-13.2-1.9c-1-0.1-1.8-0.8-2.3-1.6l-5.9-12   C53.6,23,51.9,22,50,22c0,0,0,0,0,0c-1.9,0-3.6,1.1-4.5,2.8l-5.9,12c-0.4,0.9-1.3,1.5-2.3,1.6l-13.2,1.9c-1.9,0.3-3.4,1.6-4,3.4   c-0.6,1.8-0.1,3.8,1.3,5.1l9.5,9.3c0.7,0.7,1,1.7,0.9,2.7l-2.3,13.1c-0.3,1.9,0.4,3.8,2,4.9c0.9,0.6,1.9,1,2.9,1   c0.8,0,1.6-0.2,2.3-0.6L48.6,73c0.9-0.5,1.9-0.5,2.8,0l11.8,6.2c1.7,0.9,3.7,0.7,5.3-0.4c1.6-1.1,2.3-3,2-4.9l-2.3-13.1   c-0.2-1,0.2-2,0.9-2.7L78.6,48.8z M66.2,61.1l2.3,13.1c0.2,1.2-0.2,2.2-1.2,2.9c-0.9,0.7-2.1,0.8-3.2,0.2l-11.8-6.2   c-1.5-0.8-3.2-0.8-4.7,0l-11.8,6.2c-1,0.5-2.2,0.5-3.2-0.2c-0.9-0.7-1.4-1.8-1.2-2.9l2.3-13.1c0.3-1.6-0.3-3.3-1.4-4.4l-9.5-9.3   c-0.8-0.8-1.1-2-0.8-3.1s1.3-1.9,2.4-2l13.2-1.9c1.6-0.2,3-1.3,3.8-2.7l5.9-12c0.5-1,1.5-1.7,2.7-1.7h0c1.2,0,2.2,0.6,2.7,1.7   l5.9,12c0.7,1.5,2.1,2.5,3.8,2.7l13.2,1.9c1.2,0.2,2.1,0.9,2.4,2c0.4,1.1,0.1,2.3-0.8,3.1l-9.5,9.3C66.5,57.8,66,59.5,66.2,61.1z"/></g><text x="0" y="115" fill="#000000" font-size="5px" font-weight="bold" font-family="'Helvetica Neue', Helvetica, Arial-Unicode, Arial, Sans-serif">Created by Jivan</text><text x="0" y="120" fill="#000000" font-size="5px" font-weight="bold" font-family="'Helvetica Neue', Helvetica, Arial-Unicode, Arial, Sans-serif">from the Noun Project</text></svg>